<svg width="100" height="100" viewBox="0 0 100 100" fill="none" xmlns="http://www.w3.org/2000/svg">
<rect width="100" height="100" rx="15.625" fill="#009A8F"/>
<path d="M69.4545 49.2425L82.7505 32.7398C83.6999 31.5637 83.0828 30.1555 81.5797 30.1555H79.0323C78.3097 30.1555 77.6768 30.5036 77.2338 31.0468L63.6107 47.8185L65.8048 42.402C65.9313 42.0908 65.9208 41.7586 65.7784 41.4579L60.9948 31.1312C60.6994 30.493 60.172 30.0817 59.4547 30.0817H35.5419C30.8585 30.0817 26.4229 31.9276 23.2215 35.3874C18.8915 40.0656 17.9052 46.4209 17.1194 52.4967C16.7133 55.6717 16.4285 59.0788 17.9527 61.969C20.0571 65.9509 23.7595 68.3559 28.5167 68.3559H41.0955C42.5037 68.3559 43.0417 67.3908 43.2526 66.2727L46.2167 50.3976C46.396 49.1423 45.895 47.9293 44.4921 47.9293H34.4185C33.7434 47.9293 33.3004 48.3776 33.3004 48.9736C33.3004 51.1412 35.1674 52.9344 37.1821 53.3089C39.123 53.6095 38.9753 54.5008 38.8276 55.6981L37.7623 62.0639C37.6884 62.3382 37.4827 62.5122 37.1716 62.5122C28.8543 62.5122 21.9557 63.8097 23.4905 52.4176C24.6297 46.2046 24.6192 40.0603 31.2118 37.0277C34.6611 35.4296 39.1494 35.9834 42.8676 35.9834C45.5627 35.9834 47.0816 34.3484 47.704 31.8063C52.8884 33.0879 55.8525 35.1923 58.0835 39.0688C59.8397 42.1699 61.2216 45.4821 62.7247 48.7204L49.186 65.2706C48.8326 65.7083 48.5004 66.1725 48.5004 66.7579C48.5004 67.5015 49.0067 68.3348 49.8242 68.3348H53.0625C53.8378 68.3507 54.4865 67.9287 55.0086 67.2853L65.4145 54.4164L71.0103 66.3781C71.4955 67.4224 71.928 68.3401 73.1305 68.3401H75.5197C76.3424 68.3401 77.0017 68.0079 77.3182 67.2167C77.545 66.5311 77.3815 66.1144 77.0914 65.4974L69.4545 49.2531V49.2425Z" fill="white"/>
</svg>
