<svg width="197" height="20" viewBox="0 0 197 20" fill="none" xmlns="http://www.w3.org/2000/svg">
<path d="M82.3728 4.00992H82.6628L82.5128 1.66992H82.1328L81.4628 3.58992L80.8228 1.66992H80.4428L80.2828 4.00992H80.5728L80.6828 1.96992L81.3628 3.99992H81.5928L82.3028 1.96992L82.3928 4.00992H82.3728ZM79.0628 4.00992H79.3728V1.92992H80.0728V1.66992H78.3628V1.92992H79.0728V4.00992H79.0628Z" fill="#004742"/>
<path d="M20.3728 8.76018H16.4128C16.2328 8.76018 16.1728 8.62018 16.2328 8.45018C16.7528 6.95018 18.3728 5.57018 19.9828 6.44018C20.7328 6.87018 20.7128 7.81018 20.6328 8.53018C20.6228 8.65018 20.5128 8.75018 20.3928 8.75018M20.9228 4.21018C18.7828 3.43018 16.3828 4.08018 14.9228 5.83018C14.2628 6.72018 13.7928 7.74018 13.5728 8.82018C13.2728 10.1002 12.9828 11.8402 13.4228 13.1302C14.0028 14.8402 15.7128 15.6902 17.4428 15.6902H21.1328C21.3728 15.6702 21.5528 15.4702 21.5628 15.2302C21.5828 14.2402 20.7928 13.4202 19.8028 13.4002C19.7728 13.4002 19.7428 13.4002 19.7028 13.4002H18.1428C17.5728 13.4402 17.0128 13.3602 16.4728 13.1602C15.6528 12.7702 15.6228 11.8402 15.7028 11.0502C15.7128 10.9102 15.8328 10.8102 15.9728 10.8102H22.1028C22.5028 10.8002 22.8428 10.4902 22.8928 10.0902C23.0228 9.56018 23.1028 9.03018 23.1528 8.49018C23.3228 6.73018 22.6728 4.89018 20.9128 4.19018L20.9228 4.21018ZM56.2728 14.5602L53.1628 7.97018L58.5728 1.25018C58.8228 1.02018 58.8328 0.64018 58.6128 0.39018C58.4828 0.25018 58.2928 0.18018 58.1028 0.20018H57.0628C56.7728 0.20018 56.5028 0.34018 56.3328 0.56018L50.7828 7.40018L51.6728 5.20018C51.7228 5.08018 51.7228 4.94018 51.6728 4.82018L49.7528 0.59018C49.6528 0.33018 49.4028 0.16018 49.1328 0.16018H38.9928C44.7828 0.59018 47.0628 1.22018 48.5628 3.81018C49.2728 5.09018 49.8428 6.42018 50.4428 7.74018L44.9328 14.4702C44.7728 14.6302 44.6728 14.8402 44.6528 15.0702C44.6328 15.3902 44.8728 15.6802 45.1928 15.7102H46.5128C46.8328 15.7102 47.1228 15.5402 47.3028 15.2802L51.5328 10.0502L53.8128 14.9202C54.0128 15.3502 54.1928 15.7102 54.6628 15.7102H55.6328C55.9528 15.7402 56.2528 15.5502 56.3628 15.2502C56.4428 15.0202 56.4128 14.7602 56.2828 14.5502L56.2728 14.5602ZM75.8528 4.05018C73.6828 3.74018 70.9228 3.53018 69.3728 5.43018C68.4528 6.71018 68.7428 8.13018 69.6228 9.17018C70.6028 10.3302 72.2028 10.7002 73.2228 11.8102C73.5728 12.2602 73.4828 12.9002 73.0428 13.2402C73.0128 13.2702 72.9728 13.2902 72.9428 13.3102C72.0128 13.9302 69.8928 13.6202 68.8928 13.4302C68.3828 13.3702 67.9028 13.3502 67.6828 13.8202C67.5428 14.1702 67.4828 14.5402 67.5028 14.9202C67.5528 15.3802 68.0628 15.5502 68.4428 15.6202C69.2728 15.7802 70.1228 15.8602 70.9728 15.8602C72.8928 15.8602 74.8228 15.4802 75.7528 13.6002C76.0628 12.6602 76.1428 11.5402 75.5728 10.6802C75.0028 9.82018 74.0028 9.28018 73.1228 8.71018C72.5928 8.36018 71.6928 7.95018 71.4128 7.36018C71.3128 7.05018 71.4128 6.71018 71.6628 6.51018C72.5128 5.76018 74.9728 6.23018 75.9828 6.31018C76.3128 6.35018 76.6228 6.18018 76.7728 5.88018C76.9028 5.55018 76.9628 5.20018 76.9528 4.85018C76.9828 4.24018 76.5328 4.13018 75.8628 4.04018L75.8528 4.05018ZM30.6728 4.02018H26.2528C25.6928 4.02018 25.4528 4.39018 25.3728 4.87018C24.8228 8.21018 24.2428 11.5302 23.6428 14.8502C23.5628 15.2402 23.8128 15.6102 24.2028 15.6902C24.2428 15.6902 24.2828 15.7002 24.3228 15.7002H25.4028C25.8628 15.7002 26.1028 15.2702 26.1628 14.8702L27.6128 6.57018C27.6128 6.44018 27.7328 6.34018 27.8628 6.35018H30.3028C31.4128 6.35018 31.6128 7.07018 31.4428 8.02018L30.2728 14.8602C30.1928 15.2402 30.4428 15.6202 30.8228 15.7002C30.8628 15.7002 30.9028 15.7102 30.9428 15.7102H32.0328C32.4828 15.7102 32.7228 15.2802 32.7928 14.8902L33.8828 8.85018C34.1128 7.63018 34.0928 6.23018 33.3028 5.20018C32.6628 4.42018 31.6928 3.98018 30.6828 4.01018L30.6728 4.02018ZM12.0828 0.0901799H7.65281C5.74281 0.0601799 3.91281 0.85018 2.62281 2.26018C1.78281 3.19018 1.16281 4.31018 0.832813 5.52018C0.502813 6.75018 0.272813 8.00018 0.132813 9.26018C-0.0371866 10.5402 -0.147187 11.9502 0.472813 13.1302C1.28281 14.7602 2.96281 15.7802 4.79281 15.7402H9.92281C10.5028 15.7402 10.7128 15.3502 10.8028 14.8902L12.0328 8.41018C12.1028 7.90018 11.9028 7.41018 11.3328 7.41018H7.21281C6.97281 7.39018 6.77281 7.57018 6.75281 7.81018C6.75281 7.82018 6.75281 7.83018 6.75281 7.84018C6.80281 8.73018 7.46281 9.46018 8.34281 9.61018C9.13281 9.73018 9.07281 10.1002 9.02281 10.5902L8.59281 13.1902C8.57281 13.3002 8.46281 13.3802 8.35281 13.3702C4.93281 13.3702 2.13281 13.9002 2.76281 9.25018C3.23281 6.71018 3.22281 4.20018 5.92281 2.96018C7.33281 2.31018 9.16281 2.53018 10.6828 2.53018C11.0828 2.55018 11.4828 2.44018 11.8228 2.22018C12.2828 1.85018 12.5928 1.32018 12.6728 0.74018C12.7528 0.30018 12.4928 0.11018 12.1028 0.11018L12.0828 0.0901799ZM60.6228 15.7302H65.0428C65.6028 15.7302 65.8428 15.3602 65.9228 14.8802C66.4828 11.5502 67.0528 8.23018 67.6528 4.90018C67.7328 4.51018 67.4728 4.13018 67.0828 4.06018C67.0428 4.06018 67.0128 4.05018 66.9728 4.05018H65.8828C65.4328 4.05018 65.1828 4.50018 65.1228 4.88018L63.6828 13.1902C63.6728 13.3202 63.5628 13.4102 63.4328 13.4102H60.9928C59.8828 13.4102 59.6828 12.6902 59.8528 11.7402L61.0228 4.90018C61.1028 4.52018 60.8628 4.14018 60.4828 4.06018C60.4428 4.06018 60.3928 4.05018 60.3528 4.04018H59.2628C58.8128 4.04018 58.5728 4.47018 58.5028 4.86018L57.4328 10.8902C57.2128 12.1102 57.2228 13.5102 58.0128 14.5402C58.6528 15.3202 59.6128 15.7602 60.6228 15.7302ZM42.1828 8.76018H38.2028C38.0228 8.76018 37.9628 8.62018 38.0228 8.45018C38.5428 6.95018 40.1628 5.57018 41.7628 6.44018C42.5128 6.87018 42.4928 7.81018 42.4028 8.53018C42.4028 8.65018 42.3028 8.74018 42.1828 8.75018V8.76018ZM42.7228 4.22018C40.5828 3.45018 38.1928 4.10018 36.7428 5.85018C36.0828 6.74018 35.6128 7.76018 35.3928 8.84018C35.0928 10.1202 34.8128 11.8602 35.2528 13.1502C35.8328 14.8602 37.5428 15.7102 39.2728 15.7102H42.9728C43.2228 15.7102 43.4128 15.5002 43.4228 15.2502C43.4428 14.2602 42.6528 13.4402 41.6528 13.4202C41.6228 13.4202 41.5928 13.4202 41.5628 13.4202H39.9728C39.4028 13.4602 38.8428 13.3802 38.3028 13.1802C37.4828 12.7902 37.4528 11.8602 37.5328 11.0702C37.5428 10.9302 37.6628 10.8302 37.8028 10.8302H43.9328C44.3328 10.8102 44.6628 10.5002 44.7228 10.1002C44.8428 9.57018 44.9328 9.04018 44.9828 8.50018C45.1328 6.74018 44.4828 4.90018 42.7228 4.20018V4.22018Z" fill="#004742"/>
<path d="M87.8105 4.00907L87.3119 6.8786H93.6513C93.8752 6.8786 94.0278 6.98036 93.9871 7.2958L93.865 8.07933C93.8243 8.30319 93.7226 8.49653 93.3664 8.49653H87.027L86.4266 11.9664C86.3656 12.3022 86.3249 12.5668 86.3249 12.811C86.3249 13.737 86.8438 14.1135 88.5737 14.1135H92.5015C92.705 14.1135 92.7864 14.1542 92.7457 14.3577L92.5625 15.3651C92.5422 15.4872 92.5218 15.6093 92.3183 15.65C91.718 15.7111 89.4895 15.7925 88.2684 15.7925C85.9178 15.7925 84.4729 14.8258 84.4729 12.8212C84.4729 12.5566 84.4932 12.2615 84.5543 11.9562L85.9382 4.00907C86.4775 0.976727 88.126 0.172852 91.0158 0.172852C93.3461 0.172852 94.4654 0.254257 95.025 0.356013C95.1675 0.376364 95.2286 0.437418 95.1878 0.640931L95.0047 1.60762C94.9843 1.81113 94.8826 1.85183 94.7401 1.85183H90.7513C88.5635 1.85183 88.0852 2.43184 87.8207 3.99889L87.8105 4.00907Z" fill="#004742"/>
<path d="M104.702 8.44549L103.501 15.2428C103.461 15.4667 103.237 15.66 103.003 15.66H102.016C101.772 15.66 101.639 15.4565 101.68 15.2428L102.881 8.44549C102.942 8.04864 102.982 7.64161 102.982 7.30582C102.982 6.31878 102.565 5.73877 101.059 5.73877C100.276 5.73877 99.4719 5.90158 98.1491 6.52229L96.6227 15.2326C96.582 15.4362 96.3582 15.6498 96.1241 15.6498H95.1167C94.8725 15.6498 94.7708 15.426 94.8115 15.2326L96.6532 4.70085C96.6939 4.47699 96.8161 4.28365 97.1926 4.28365H98.0575C98.3831 4.28365 98.495 4.40576 98.4543 4.70085L98.3933 5.1384C99.3803 4.57874 100.316 4.15137 101.721 4.15137C103.929 4.15137 104.814 5.55561 104.814 7.32617C104.814 7.67214 104.773 8.08934 104.712 8.44549H104.702Z" fill="#004742"/>
<path d="M112.842 4.29427C113.087 4.29427 113.219 4.41638 113.178 4.71147L113.056 5.41359C112.995 5.79009 112.812 5.83079 112.578 5.83079H110.349L109.067 13.0759C109.027 13.3201 109.006 13.5134 109.006 13.6762C109.006 14.2766 109.291 14.3376 109.953 14.3376H111.214C111.438 14.3376 111.54 14.3987 111.499 14.6225L111.377 15.345C111.336 15.5282 111.235 15.6503 110.94 15.7012C110.522 15.7622 110.034 15.8029 109.637 15.8029C108.233 15.8029 107.154 15.2636 107.154 13.839C107.154 13.5745 107.175 13.3608 107.236 13.0352L108.518 5.83079L106.554 5.60693C106.35 5.58658 106.177 5.44412 106.218 5.23043L106.32 4.67077C106.381 4.38585 106.544 4.29427 106.778 4.29427H108.782L109.118 2.26932C109.159 2.06581 109.342 1.89282 109.576 1.85212L110.675 1.68931C110.96 1.6486 111.031 1.83177 110.98 2.03528L110.604 4.2841H112.832L112.842 4.29427Z" fill="#004742"/>
<path d="M122.835 9.22901L122.672 10.0939C122.611 10.3585 122.53 10.5518 122.214 10.5518H115.254L115.213 10.7961C115.132 11.2743 115.091 11.6813 115.091 12.0578C115.091 13.6045 116.058 14.266 117.656 14.266C118.856 14.266 120.261 14.1235 121.227 13.981C121.533 13.9403 121.665 14.0014 121.624 14.266L121.502 14.9681C121.461 15.253 121.36 15.3853 121.003 15.4463C119.782 15.6702 118.775 15.7923 117.391 15.7923C115.346 15.7923 113.321 14.7646 113.321 11.9764C113.321 11.5796 113.361 11.1522 113.443 10.6943L113.707 9.24936C114.328 5.96263 116.251 4.15137 119.182 4.15137C121.746 4.15137 122.957 5.82017 122.957 7.98758C122.957 8.38443 122.916 8.79146 122.835 9.22901ZM118.907 5.73877C117.116 5.73877 115.916 7.16336 115.539 9.0662L115.519 9.16796H120.993L121.014 9.0662C121.095 8.649 121.136 8.26233 121.136 7.92653C121.136 6.46124 120.373 5.73877 118.907 5.73877Z" fill="#004742"/>
<path d="M125.705 15.2429C125.664 15.4668 125.44 15.6601 125.206 15.6601H124.199C123.975 15.6601 123.853 15.4566 123.893 15.2429L125.735 4.71111C125.776 4.48724 125.979 4.2939 126.213 4.2939H127.18C127.424 4.2939 127.536 4.49742 127.485 4.71111L127.404 5.18936C128.523 4.32443 129.51 4.16162 130.457 4.16162H130.497C130.853 4.16162 130.914 4.30408 130.874 4.53812L130.731 5.40305C130.691 5.62691 130.528 5.74902 130.233 5.74902H130.172C128.991 5.74902 128.228 5.95253 127.221 6.5936L125.715 15.2429H125.705Z" fill="#004742"/>
<path d="M140.408 9.24936L140.144 10.735C139.503 14.2456 137.915 15.7923 134.751 15.7923C134.11 15.7923 133.143 15.7109 132.38 15.5684L131.718 19.3029C131.678 19.5064 131.474 19.6998 131.24 19.6998H130.182C129.999 19.6998 129.897 19.5776 129.897 19.3945V19.3131L132.4 5.10788C132.441 4.82296 132.543 4.71103 132.919 4.62962C134.059 4.36506 135.544 4.15137 136.806 4.15137C139.33 4.15137 140.541 5.67771 140.541 7.92653C140.541 8.34373 140.5 8.79146 140.419 9.24936H140.408ZM136.521 5.67771C135.656 5.67771 134.639 5.77947 134.059 5.88123L132.634 14.0624C133.296 14.1846 134.344 14.266 135.005 14.266C136.908 14.266 137.915 12.8617 138.312 10.735L138.577 9.24936C138.679 8.71006 138.719 8.24198 138.719 7.82477C138.719 6.42054 138.119 5.67771 136.511 5.67771H136.521Z" fill="#004742"/>
<path d="M143.278 15.2429C143.237 15.4668 143.013 15.6601 142.779 15.6601H141.772C141.548 15.6601 141.426 15.4566 141.467 15.2429L143.309 4.71111C143.349 4.48724 143.553 4.2939 143.787 4.2939H144.753C144.998 4.2939 145.11 4.49742 145.059 4.71111L144.977 5.18936C146.097 4.32443 147.084 4.16162 148.03 4.16162H148.071C148.427 4.16162 148.488 4.30408 148.447 4.53812L148.305 5.40305C148.264 5.62691 148.101 5.74902 147.806 5.74902H147.745C146.565 5.74902 145.802 5.95253 144.794 6.5936L143.288 15.2429H143.278Z" fill="#004742"/>
<path d="M151.744 4.29412C151.988 4.29412 152.131 4.37553 152.07 4.71132L150.228 15.2431C150.187 15.467 150.085 15.6603 149.729 15.6603H148.742C148.457 15.6603 148.366 15.4568 148.417 15.2431L150.258 4.71132C150.32 4.33482 150.523 4.29412 150.757 4.29412H151.744ZM152.548 0C152.833 0 152.924 0.122108 152.884 0.417201L152.599 2.06566C152.538 2.35057 152.436 2.48286 152.1 2.48286H151.042C150.737 2.48286 150.665 2.27934 150.716 2.06566L151.001 0.417201C151.042 0.193337 151.184 0 151.5 0H152.558L152.548 0Z" fill="#004742"/>
<path d="M161.299 4.41601C161.604 4.47707 161.645 4.53812 161.604 4.83321L161.502 5.51498C161.462 5.7592 161.34 5.91183 161.024 5.87113C160.322 5.78972 159.142 5.70832 157.992 5.70832C157.045 5.70832 155.824 5.97289 155.824 7.17361C155.824 7.69257 156.242 8.07924 156.944 8.53715L158.786 9.75822C160.21 10.7046 160.627 11.427 160.627 12.526C160.627 14.958 158.46 15.8127 156.191 15.8127C155.326 15.8127 153.881 15.7313 152.965 15.5075C152.762 15.4668 152.568 15.3243 152.619 15.0903L152.741 14.3678C152.802 14.1032 152.904 14.0218 153.26 14.0625C154.227 14.1846 155.723 14.2864 156.465 14.2864C157.687 14.2864 158.796 13.8488 158.796 12.526C158.796 12.0477 158.551 11.6814 157.595 11.0607L155.733 9.83963C154.593 9.09681 153.993 8.27258 153.993 7.15326C153.993 4.86374 156.201 4.16162 158.267 4.16162C159.854 4.16162 160.414 4.24303 161.299 4.42619V4.41601Z" fill="#004742"/>
<path d="M172.106 9.22901L171.943 10.0939C171.882 10.3585 171.8 10.5518 171.485 10.5518H164.525L164.484 10.7961C164.403 11.2743 164.362 11.6813 164.362 12.0578C164.362 13.6045 165.329 14.266 166.926 14.266C168.127 14.266 169.531 14.1235 170.498 13.981C170.803 13.9403 170.935 14.0014 170.895 14.266L170.773 14.9681C170.732 15.253 170.63 15.3853 170.274 15.4463C169.053 15.6702 168.045 15.7923 166.662 15.7923C164.616 15.7923 162.591 14.7646 162.591 11.9764C162.591 11.5796 162.632 11.1522 162.713 10.6943L162.978 9.24936C163.599 5.96263 165.522 4.15137 168.452 4.15137C171.017 4.15137 172.228 5.82017 172.228 7.98758C172.228 8.38443 172.187 8.79146 172.106 9.22901ZM168.178 5.73877C166.377 5.73877 165.186 7.16336 164.81 9.0662L164.789 9.16796H170.264L170.284 9.0662C170.365 8.649 170.406 8.26233 170.406 7.92653C170.406 6.46124 169.643 5.73877 168.178 5.73877Z" fill="#004742"/>
<path d="M189.16 15.65H187.918C187.735 15.65 187.654 15.5075 187.634 15.3447L187.115 10.5927H181.762L179.615 15.3447C179.554 15.5075 179.432 15.65 179.178 15.65H177.916C177.733 15.65 177.631 15.5482 177.631 15.3854C177.631 15.3244 177.631 15.2633 177.672 15.1819L183.869 1.7399C184.449 0.478121 185.334 0.172852 186.239 0.172852C187.084 0.172852 187.908 0.45777 188.061 1.71955L189.506 15.1819V15.2633C189.506 15.4872 189.404 15.6602 189.16 15.6602V15.65ZM186.331 2.16728C186.311 1.94341 186.209 1.79078 185.995 1.79078C185.771 1.79078 185.619 1.93324 185.517 2.16728L182.444 8.96461H187.013L186.331 2.16728Z" fill="#004742"/>
<path d="M195.743 0.305176C196.008 0.305176 196.089 0.427284 196.049 0.69185L193.484 15.2328C193.444 15.5178 193.322 15.65 193.027 15.65H191.887C191.622 15.65 191.551 15.4465 191.602 15.2328L194.166 0.69185C194.207 0.488337 194.288 0.305176 194.604 0.305176H195.743Z" fill="#004742"/>
</svg>
