<svg width="572" height="139" viewBox="0 0 572 139" fill="none" xmlns="http://www.w3.org/2000/svg">
<path d="M213.55 101.67L217.71 95.15C226.31 101.12 236.72 105.83 249.48 105.83C265.16 105.83 276.25 98.75 276.25 86.27C276.25 75.45 270.56 69.9 248.92 65.46C225.48 60.74 216.46 53.53 216.46 39.1C216.46 23.15 230.89 13.02 250.03 13.02C261.41 13.02 271.12 15.93 280 21.9L275.56 28.14C268.21 23.29 259.47 20.79 250.03 20.79C235.6 20.79 224.64 27.59 224.64 38.96C224.64 49.09 231.44 53.8 251.28 57.96C276.39 63.23 284.57 71 284.57 86.12C284.57 103.46 270.14 113.59 249.33 113.59C234.76 113.59 222.69 108.46 213.54 101.66L213.55 101.67Z" fill="white"/>
<path d="M383.08 88.3499H325.65L315.11 111.93H306.09L349.65 14.8199H359.08L402.64 111.93H393.62L383.08 88.3499ZM342.71 49.3699L328.98 80.7199H379.62L365.75 49.0899C360.2 36.4699 357.29 29.9499 354.51 23.0099H354.23C351.46 29.9499 348.4 36.8799 342.72 49.3699H342.71Z" fill="white"/>
<path d="M434.83 14.83H443.02V111.94H434.83V14.83Z" fill="white" stroke="white" stroke-width="0.19" stroke-miterlimit="10"/>
<path d="M552.19 88.3499H494.76L484.22 111.93H475.2L518.76 14.8199H528.19L571.75 111.93H562.73L552.19 88.3499ZM511.82 49.3699L498.09 80.7199H548.73L534.86 49.0899C529.31 36.4699 526.4 29.9499 523.62 23.0099H523.34C520.57 29.9499 517.51 36.8799 511.83 49.3699H511.82Z" fill="white" stroke="white" stroke-width="0.19" stroke-miterlimit="10"/>
<path fill-rule="evenodd" clip-rule="evenodd" d="M128.148 125.599C157.342 119.954 179.46 94.2069 179.46 63.38C179.46 28.43 151.04 0 116.09 0H63.37C28.43 0 0 28.44 0 63.38C0 94.1966 22.1157 119.949 51.3078 125.598L60.2801 108.15C52.7913 107.613 45.8039 105.232 39.7706 101.46C27.0468 93.5463 18.56 79.4364 18.56 63.38C18.56 44.2221 30.6422 27.8353 47.5877 21.4386C52.5451 19.4789 57.9194 18.39 63.5301 18.39H115.94C136.341 18.39 153.61 32.0537 159.077 50.7102C160.263 54.7291 160.9 58.9815 160.9 63.38C160.9 65.2165 160.789 67.0275 160.573 68.8066C158.081 90.7795 140.7 106.616 119.18 108.16L128.148 125.599ZM83.3482 108.19L74.5901 124.26L77.0801 126.75H102.38L104.87 124.26L96.112 108.19H83.3482Z" fill="#985AE5"/>
<path d="M94.52 88.78H116.3C130.57 88.78 142.19 77.17 142.19 62.89C142.19 48.61 130.58 37 116.3 37H63.89C49.62 37 38 48.61 38 62.89C38 77.17 49.61 88.78 63.89 88.78H94.52ZM74.97 123.77L90.11 138.91L105.25 123.77L90.11 95.99L74.97 123.77Z" fill="#EEBEFF"/>
</svg>
